<svg width="160" height="30" viewBox="0 0 160 30" fill="none" xmlns="http://www.w3.org/2000/svg">
<path d="M50.1737 4.59839C49.2206 4.13397 48.1745 3.89069 47.1138 3.8868C44.4107 3.8868 41.8752 5.55796 41.8752 8.9434V23.903C41.873 23.98 41.8866 24.0567 41.9151 24.1284C41.9437 24.2 41.9866 24.2651 42.0413 24.3196C42.0959 24.3741 42.1612 24.4169 42.233 24.4454C42.3049 24.4739 42.3818 24.4874 42.4591 24.4852H44.8486C44.9261 24.4874 45.0033 24.4739 45.0754 24.4455C45.1476 24.417 45.2132 24.3743 45.2683 24.3199C45.3234 24.2655 45.3668 24.2004 45.396 24.1288C45.4251 24.0571 45.4394 23.9803 45.4379 23.903V12.9973H48.5356C48.6134 12.9988 48.6907 12.9846 48.7628 12.9556C48.835 12.9266 48.9005 12.8833 48.9556 12.8285C49.0106 12.7736 49.0539 12.7082 49.083 12.6363C49.1121 12.5643 49.1263 12.4873 49.1249 12.4097V10.9919C49.1263 10.9143 49.1121 10.8373 49.083 10.7653C49.0539 10.6934 49.0106 10.628 48.9556 10.5732C48.9005 10.5183 48.835 10.4751 48.7628 10.4461C48.6907 10.4171 48.6134 10.4028 48.5356 10.4043H45.4379V8.90027C45.4167 8.64457 45.4522 8.38736 45.542 8.14692C45.6318 7.90648 45.7736 7.68872 45.9573 7.50911C46.1411 7.3295 46.3622 7.19245 46.6051 7.10772C46.8479 7.02299 47.1065 6.99266 47.3625 7.01887C47.8562 7.03134 48.342 7.14512 48.7897 7.3531C48.8564 7.39628 48.9318 7.42425 49.0106 7.43503C49.0894 7.4458 49.1696 7.4391 49.2455 7.41542C49.3214 7.39173 49.3911 7.35165 49.4497 7.29802C49.5083 7.24438 49.5543 7.17852 49.5844 7.10512L50.4223 5.48787C50.505 5.33646 50.5252 5.15891 50.4788 4.99286C50.4324 4.82682 50.3229 4.68533 50.1737 4.59839Z" fill="white"/>
<path d="M65.5496 9.77897H63.1601C63.0826 9.77748 63.0055 9.7917 62.9336 9.82077C62.8618 9.84984 62.7966 9.89315 62.742 9.94809C62.6874 10.003 62.6446 10.0684 62.6161 10.1404C62.5876 10.2123 62.574 10.2893 62.5762 10.3666V12.1186C62.0268 11.2929 61.2686 10.6264 60.3783 10.1863C59.4879 9.7462 58.4969 9.54804 57.5053 9.61185C53.3588 9.65498 50.5908 12.6631 50.5908 17.0889C50.5908 21.6011 53.3966 24.6954 57.6188 24.6954C58.5905 24.741 59.5574 24.5338 60.4246 24.0944C61.2918 23.6549 62.0295 22.9982 62.5654 22.1887V23.9461C62.5632 24.0231 62.5767 24.0999 62.6053 24.1715C62.6338 24.2431 62.6768 24.3082 62.7314 24.3627C62.7861 24.4173 62.8514 24.4601 62.9232 24.4885C62.9951 24.517 63.072 24.5305 63.1493 24.5283H65.5388C65.6163 24.5305 65.6935 24.517 65.7656 24.4886C65.8378 24.4602 65.9034 24.4174 65.9585 24.363C66.0136 24.3086 66.057 24.2436 66.0862 24.1719C66.1153 24.1002 66.1296 24.0234 66.1281 23.9461V10.3666C66.1354 10.2885 66.1255 10.2098 66.0992 10.136C66.0728 10.0621 66.0307 9.99486 65.9756 9.93892C65.9205 9.88298 65.8539 9.83969 65.7803 9.81207C65.7067 9.78444 65.628 9.77314 65.5496 9.77897ZM62.4897 17.2776C62.4912 17.7137 62.4496 18.1489 62.3654 18.5768C62.1727 19.4797 61.6695 20.287 60.9429 20.859C60.2163 21.431 59.3119 21.7316 58.3865 21.7089C55.9105 21.7089 54.1967 19.8706 54.1967 17.1968C54.1967 14.5229 55.9537 12.6846 58.3865 12.6846C59.3137 12.6544 60.2218 12.9523 60.95 13.5255C61.6782 14.0987 62.1796 14.9103 62.3654 15.8167C62.468 16.2399 62.5099 16.6755 62.4897 17.1105V17.2776Z" fill="white"/>
<path d="M72.588 13.7089C72.588 12.7871 73.426 12.4097 74.5991 12.4097C75.9348 12.4631 77.2404 12.8209 78.4159 13.4555C78.5601 13.5325 78.729 13.5496 78.8859 13.5032C79.0428 13.4567 79.175 13.3505 79.2538 13.2076L80.0053 11.6604C80.072 11.5214 80.0834 11.3624 80.0373 11.2154C79.9912 11.0683 79.8909 10.9442 79.7566 10.8679C78.2378 10.0462 76.5378 9.61457 74.81 9.61186C71.8366 9.61186 69.2362 11.035 69.2362 14.0431C69.193 19.2615 76.9454 17.8167 76.9454 20.5121C76.9454 21.4717 76.0263 21.8922 74.7829 21.8922C73.1962 21.8578 71.6539 21.3633 70.3445 20.469C70.2716 20.4216 70.1893 20.3903 70.1033 20.3774C70.0172 20.3646 69.9293 20.3704 69.8457 20.3944C69.7621 20.4185 69.6846 20.4602 69.6186 20.5168C69.5526 20.5734 69.4996 20.6435 69.4633 20.7224L68.7389 22.1294C68.6807 22.2562 68.6656 22.3985 68.6959 22.5347C68.7261 22.6709 68.8 22.7936 68.9065 22.8841C70.5795 24.0395 72.5695 24.6514 74.6045 24.6361C77.7509 24.6361 80.4323 23.1752 80.4323 20.1671C80.4269 14.9164 72.588 16.1995 72.588 13.7089Z" fill="white"/>
<path d="M90.2718 21.5903C90.2486 21.5107 90.2088 21.4369 90.1549 21.3737C90.1011 21.3106 90.0344 21.2595 89.9594 21.2239C89.8843 21.1883 89.8025 21.1688 89.7194 21.167C89.6363 21.1651 89.5537 21.1807 89.4771 21.2129C89.0125 21.4099 88.5164 21.5231 88.0121 21.5472C87.0011 21.5472 86.4173 20.8356 86.4173 19.2507V12.9973H90.061C90.1388 12.9988 90.2161 12.9846 90.2882 12.9556C90.3604 12.9266 90.4259 12.8833 90.481 12.8285C90.536 12.7736 90.5793 12.7082 90.6084 12.6363C90.6375 12.5643 90.6517 12.4873 90.6503 12.4097V10.9919C90.6517 10.9143 90.6375 10.8373 90.6084 10.7653C90.5793 10.6934 90.536 10.628 90.481 10.5732C90.4259 10.5183 90.3604 10.4751 90.2882 10.4461C90.2161 10.4171 90.1388 10.4029 90.061 10.4043H86.4173V6.93801C86.4187 6.86045 86.4045 6.78338 86.3754 6.71143C86.3463 6.63947 86.3029 6.57411 86.2479 6.51926C86.1929 6.4644 86.1274 6.42116 86.0552 6.39215C85.9831 6.36314 85.9058 6.34895 85.828 6.35041H83.4439C83.3661 6.34895 83.2888 6.36314 83.2166 6.39215C83.1445 6.42116 83.0789 6.4644 83.0239 6.51926C82.9689 6.57411 82.9256 6.63947 82.8965 6.71143C82.8674 6.78338 82.8531 6.86045 82.8546 6.93801V19.8491C82.8546 23.0836 84.7846 24.7008 87.2985 24.7008C88.4117 24.6812 89.5039 24.3946 90.4827 23.8652C90.6106 23.8032 90.711 23.6963 90.7649 23.565C90.8187 23.4337 90.8222 23.2873 90.7746 23.1536L90.2718 21.5903Z" fill="white"/>
<path d="M124.255 9.65498C119.563 9.65498 116.422 12.6631 116.422 17.1321C116.422 21.6011 119.563 24.6523 124.255 24.6523C128.861 24.6523 132.051 21.6011 132.051 17.1321C132.051 12.6631 128.861 9.65498 124.255 9.65498ZM124.255 21.6442C121.785 21.6442 120.066 19.8059 120.066 17.1752C120.066 14.5445 121.785 12.7062 124.255 12.7062C126.726 12.7062 128.402 14.5445 128.402 17.1752C128.402 19.8059 126.683 21.6442 124.255 21.6442Z" fill="white"/>
<path d="M142.646 9.65499C141.728 9.72296 140.844 10.0281 140.08 10.5404C139.315 11.0527 138.698 11.7545 138.289 12.5768V10.3235C138.291 10.2462 138.278 10.1692 138.249 10.0973C138.221 10.0253 138.178 9.95992 138.123 9.90498C138.069 9.85005 138.003 9.80674 137.932 9.77767C137.86 9.74859 137.783 9.73437 137.705 9.73586H135.316C135.238 9.73437 135.161 9.74859 135.089 9.77767C135.017 9.80674 134.952 9.85005 134.897 9.90498C134.843 9.95992 134.8 10.0253 134.772 10.0973C134.743 10.1692 134.729 10.2462 134.732 10.3235V23.8598C134.729 23.9371 134.743 24.0141 134.772 24.086C134.8 24.158 134.843 24.2234 134.897 24.2783C134.952 24.3333 135.017 24.3766 135.089 24.4056C135.161 24.4347 135.238 24.4489 135.316 24.4474H137.705C137.783 24.4489 137.86 24.4347 137.932 24.4056C138.003 24.3766 138.069 24.3333 138.123 24.2783C138.178 24.2234 138.221 24.158 138.249 24.086C138.278 24.0141 138.291 23.9371 138.289 23.8598V17.4232C138.289 14.9164 139.965 13.1644 142.733 13.1105C142.887 13.1077 143.034 13.0455 143.143 12.9369C143.251 12.8283 143.314 12.6819 143.317 12.5283V10.3235C143.326 10.2334 143.315 10.1424 143.285 10.057C143.254 9.97172 143.205 9.89422 143.141 9.83019C143.077 9.76617 142.999 9.71723 142.913 9.68692C142.828 9.65661 142.737 9.64569 142.646 9.65499Z" fill="white"/>
<path d="M158.908 23.6119L153.713 15.4609L158.194 10.7817C158.277 10.6992 158.333 10.594 158.356 10.4797C158.378 10.3653 158.366 10.2468 158.321 10.1393C158.275 10.0318 158.199 9.94017 158.102 9.87601C158.004 9.81184 157.89 9.77806 157.773 9.77898H155.302C155.148 9.78257 155 9.84195 154.886 9.94609L148.977 15.876V4.64151C148.978 4.56394 148.964 4.48688 148.935 4.41493C148.906 4.34297 148.863 4.27761 148.808 4.22275C148.752 4.1679 148.687 4.12466 148.615 4.09565C148.543 4.06664 148.465 4.05245 148.388 4.05391H146.003C145.926 4.05245 145.848 4.06664 145.776 4.09565C145.704 4.12466 145.639 4.1679 145.584 4.22275C145.528 4.27761 145.485 4.34297 145.456 4.41493C145.427 4.48688 145.413 4.56394 145.414 4.64151V23.903C145.413 23.9803 145.427 24.0571 145.456 24.1288C145.485 24.2005 145.529 24.2655 145.584 24.3199C145.639 24.3743 145.704 24.4171 145.777 24.4455C145.849 24.4739 145.926 24.4874 146.003 24.4852H148.388C148.465 24.4874 148.542 24.4739 148.614 24.4455C148.687 24.4171 148.752 24.3743 148.807 24.3199C148.862 24.2655 148.906 24.2005 148.935 24.1288C148.964 24.0571 148.978 23.9803 148.977 23.903V20.4313L151.237 18.0539L155.053 24.2372C155.108 24.3223 155.182 24.3931 155.269 24.4438C155.357 24.4944 155.455 24.5234 155.556 24.5283H158.405C158.511 24.5257 158.615 24.4953 158.705 24.4402C158.796 24.3851 158.87 24.3073 158.921 24.2145C158.972 24.1217 158.998 24.0172 158.995 23.9114C158.993 23.8056 158.963 23.7023 158.908 23.6119Z" fill="white"/>
<path d="M114.151 11.5741V10.4043C114.152 10.327 114.138 10.2502 114.109 10.1785C114.079 10.1068 114.036 10.0418 113.981 9.98739C113.926 9.93295 113.86 9.89024 113.788 9.86183C113.716 9.83342 113.639 9.81991 113.561 9.82212H111.177C111.1 9.81991 111.022 9.83342 110.95 9.86183C110.878 9.89024 110.813 9.93295 110.757 9.98739C110.702 10.0418 110.659 10.1068 110.63 10.1785C110.601 10.2502 110.586 10.327 110.588 10.4043V14.0809C110.588 15.5472 110.631 17.0081 110.588 18.469C110.591 19.0401 110.409 19.597 110.069 20.0566C109.729 20.5162 109.249 20.8537 108.701 21.0189C108.345 21.1123 107.973 21.1293 107.609 21.0688C107.246 21.0083 106.9 20.8716 106.593 20.6679C106.287 20.4641 106.027 20.1978 105.831 19.8866C105.635 19.5755 105.508 19.2264 105.457 18.8625C105.436 18.4441 105.436 18.0249 105.457 17.6065V10.3828C105.459 10.3052 105.445 10.2281 105.416 10.1562C105.386 10.0842 105.343 10.0189 105.288 9.96399C105.233 9.90914 105.168 9.86592 105.095 9.83691C105.023 9.80789 104.946 9.79369 104.868 9.79515H102.484C102.406 9.79369 102.329 9.80789 102.257 9.83691C102.185 9.86592 102.119 9.90914 102.064 9.96399C102.009 10.0189 101.966 10.0842 101.937 10.1562C101.908 10.2281 101.893 10.3052 101.895 10.3828V14.0431C101.895 15.504 101.938 16.965 101.895 18.4259C101.895 19.0128 101.702 19.5836 101.347 20.0516C100.992 20.5196 100.493 20.8592 99.9269 21.0189C99.5669 21.1054 99.1924 21.114 98.8287 21.0439C98.465 20.9739 98.1207 20.8268 97.8189 20.6127C97.5171 20.3986 97.2648 20.1225 97.0792 19.8029C96.8935 19.4833 96.7788 19.1277 96.7427 18.7601C96.7211 18.3705 96.7211 17.9799 96.7427 17.5903V10.3666C96.7442 10.289 96.7299 10.2119 96.7009 10.14C96.6718 10.068 96.6284 10.0027 96.5734 9.94782C96.5184 9.89296 96.4528 9.84975 96.3807 9.82073C96.3085 9.79172 96.2312 9.77752 96.1534 9.77898H93.7261C93.6483 9.77752 93.571 9.79172 93.4989 9.82073C93.4267 9.84975 93.3612 9.89296 93.3061 9.94782C93.2511 10.0027 93.2078 10.068 93.1787 10.14C93.1496 10.2119 93.1354 10.289 93.1368 10.3666V18.5553C93.1464 19.9722 93.6484 21.3419 94.5573 22.4311C95.4662 23.5202 96.7258 24.2614 98.1213 24.5283C99.1915 24.7353 100.3 24.6101 101.296 24.1695C102.293 23.729 103.13 22.9944 103.695 22.0647C104.125 22.7679 104.712 23.3635 105.409 23.8055C106.106 24.2475 106.896 24.5243 107.717 24.6145C109.266 24.7104 110.794 24.2173 111.993 23.2345C112.965 22.4145 113.666 21.321 114.005 20.097C114.198 19.2343 114.269 18.3487 114.215 17.4663C114.15 15.5041 114.151 13.5418 114.151 11.5741Z" fill="white"/>
<path d="M31.1141 21.3425L24.3681 16.1301L24.5023 17.1381C24.5667 17.5482 24.599 17.9627 24.5989 18.3779C24.5981 18.7383 24.5748 19.0984 24.5291 19.4559L29.5202 23.3153C29.9836 23.6453 30.3077 24.1371 30.4291 24.6946C30.5505 25.252 30.4604 25.8348 30.1764 26.329C29.8925 26.8232 29.4351 27.1932 28.8939 27.3665C28.3526 27.5399 27.7664 27.5041 27.2501 27.2663L19.7367 24.1453C20.7542 23.5699 21.6012 22.733 22.1906 21.7204C22.78 20.7079 23.0907 19.5561 23.0909 18.3832C23.0896 17.9619 23.05 17.5415 22.9728 17.1273L21.2608 4.19089C21.1103 3.03193 20.5451 1.96756 19.6707 1.19641C18.7962 0.42525 17.6723 0 16.5086 0C15.3449 0 14.221 0.42525 13.3465 1.19641C12.4721 1.96756 11.9069 3.03193 11.7564 4.19089L10.6347 12.6643L11.4344 12.0444C11.7571 11.784 12.0998 11.5497 12.4594 11.3437C12.7649 11.1674 13.0802 11.009 13.4039 10.8693L14.2358 4.60055C14.2907 4.0341 14.5536 3.50845 14.9732 3.126C15.3929 2.74356 15.9392 2.5317 16.5059 2.5317C17.0726 2.5317 17.6189 2.74356 18.0386 3.126C18.4582 3.50845 18.7211 4.0341 18.776 4.60055L19.8494 12.6858C18.6502 11.9788 17.2592 11.6706 15.8751 11.8052C14.491 11.9397 13.1847 12.5102 12.1428 13.4351L1.88698 21.3586C0.96016 22.0683 0.322558 23.0928 0.0934937 24.2405C-0.13557 25.3882 0.0595974 26.5804 0.642481 27.594C1.22537 28.6076 2.15602 29.3731 3.26028 29.7474C4.36454 30.1216 5.56673 30.0789 6.64189 29.6272L14.5041 26.3661L13.5703 25.978C13.1875 25.8257 12.8162 25.6456 12.4594 25.439C12.1527 25.2621 11.8586 25.064 11.5793 24.8461L5.75101 27.2663C5.23463 27.5041 4.64845 27.5399 4.1072 27.3665C3.56596 27.1932 3.1086 26.8232 2.82465 26.329C2.5407 25.8348 2.4506 25.252 2.57197 24.6946C2.69335 24.1371 3.01747 23.6453 3.4809 23.3153L9.92095 18.3347C9.92095 18.3347 9.92095 18.3671 9.92095 18.3832C9.92205 19.7329 10.3339 21.0499 11.1012 22.1578C11.8686 23.2657 12.9548 24.1116 14.2143 24.5819L26.3699 29.611C27.4446 30.0591 28.6449 30.0992 29.7469 29.7238C30.8489 29.3484 31.7772 28.5832 32.3587 27.5708C32.9402 26.5585 33.1351 25.3683 32.9071 24.2222C32.6791 23.0762 32.0437 22.0526 31.1195 21.3425H31.1141ZM12.4165 18.3671C12.4175 17.5592 12.657 16.7698 13.1047 16.0986C13.5523 15.4274 14.188 14.9046 14.9314 14.5962C15.6748 14.2878 16.4926 14.2076 17.2813 14.3659C18.0701 14.5241 18.7944 14.9137 19.3628 15.4853C19.9312 16.0569 20.3181 16.7849 20.4746 17.5774C20.6312 18.3698 20.5503 19.191 20.2422 19.9373C19.9342 20.6835 19.4128 21.3213 18.7439 21.77C18.0751 22.2187 17.2888 22.4582 16.4844 22.4582C15.9498 22.4582 15.4204 22.3524 14.9265 22.1467C14.4326 21.941 13.9839 21.6396 13.6061 21.2596C13.2282 20.8796 12.9287 20.4286 12.7246 19.9323C12.5205 19.4359 12.4158 18.9041 12.4165 18.3671Z" fill="white"/>
</svg>
